<svg xmlns="http://www.w3.org/2000/svg" viewBox="0 0 100 100" width="100" height="100">
  <!-- Background circle -->
  <circle cx="50" cy="50" r="48" fill="#6366f1" stroke="#4f46e5" stroke-width="2"/>
  
  <!-- Mustache symbol -->
  <g fill="#ffffff">
    <!-- Left mustache -->
    <path d="M 25 45 Q 20 35, 15 40 Q 20 45, 25 42 Q 30 50, 35 45 Q 32 42, 25 45 Z"/>
    
    <!-- Right mustache -->
    <path d="M 75 45 Q 80 35, 85 40 Q 80 45, 75 42 Q 70 50, 65 45 Q 68 42, 75 45 Z"/>
  </g>
  
  <!-- Template brackets -->
  <g fill="none" stroke="#fbbf24" stroke-width="3" stroke-linecap="round">
    <!-- Left bracket -->
    <path d="M 30 60 L 25 65 L 30 70"/>
    <path d="M 32 60 L 27 65 L 32 70"/>
    
    <!-- Right bracket -->
    <path d="M 70 60 L 75 65 L 70 70"/>
    <path d="M 68 60 L 73 65 L 68 70"/>
  </g>
  
  <!-- Central dot -->
  <circle cx="50" cy="65" r="3" fill="#fbbf24"/>
</svg>
